<svg width="119" height="22" viewBox="0 0 119 22" fill="none" xmlns="http://www.w3.org/2000/svg">
<path d="M4.11719 17.7856V0.382812H0.124023V21H13.7744V17.7856H4.11719Z" fill="white"/>
<path d="M24.8477 21.2832C26.3298 21.2832 27.6136 20.9953 28.6992 20.4194C29.7848 19.8436 30.5778 19.2017 31.0781 18.4937L29.1099 16.3696C28.6567 16.9549 28.0667 17.3939 27.3398 17.6865C26.613 17.9792 25.8625 18.1255 25.0884 18.1255C24.5409 18.1255 24.0358 18.0405 23.5732 17.8706C23.1107 17.7007 22.7 17.46 22.3413 17.1484C21.992 16.8464 21.7135 16.5112 21.5059 16.1431C21.2982 15.7655 21.1283 15.2699 20.9961 14.6562V14.6138H31.3896V12.9429C31.3896 11.8195 31.2339 10.7952 30.9224 9.87012C30.6108 8.93555 30.1577 8.13786 29.563 7.47705C28.9588 6.81624 28.2225 6.30648 27.354 5.94775C26.495 5.57959 25.5132 5.39551 24.4087 5.39551C23.342 5.39551 22.3555 5.58903 21.4492 5.97607C20.543 6.36312 19.7594 6.90592 19.0986 7.60449C18.4378 8.30306 17.9233 9.13851 17.5552 10.1108C17.187 11.0737 17.0029 12.1405 17.0029 13.311V13.8774C17.0029 14.9064 17.187 15.874 17.5552 16.7803C17.9328 17.6771 18.4661 18.4559 19.1553 19.1167C19.8444 19.7869 20.6704 20.3156 21.6333 20.7026C22.5962 21.0897 23.6676 21.2832 24.8477 21.2832ZM24.3804 8.58154C24.8807 8.58154 25.3197 8.66178 25.6973 8.82227C26.0843 8.97331 26.41 9.18099 26.6743 9.44531C26.9386 9.71908 27.1463 10.04 27.2974 10.4082C27.4484 10.7764 27.5239 11.1681 27.5239 11.5835V11.895H21.0669C21.1613 11.3947 21.3029 10.9416 21.4917 10.5356C21.6805 10.1297 21.9165 9.78044 22.1997 9.48779C22.4735 9.19515 22.7944 8.97331 23.1626 8.82227C23.5308 8.66178 23.9367 8.58154 24.3804 8.58154Z" fill="white"/>
<path d="M42.2646 21.2832C43.7467 21.2832 45.0306 20.9953 46.1162 20.4194C47.2018 19.8436 47.9948 19.2017 48.4951 18.4937L46.5269 16.3696C46.0737 16.9549 45.4837 17.3939 44.7568 17.6865C44.0299 17.9792 43.2795 18.1255 42.5054 18.1255C41.9578 18.1255 41.4528 18.0405 40.9902 17.8706C40.5277 17.7007 40.117 17.46 39.7583 17.1484C39.409 16.8464 39.1305 16.5112 38.9229 16.1431C38.7152 15.7655 38.5452 15.2699 38.4131 14.6562V14.6138H48.8066V12.9429C48.8066 11.8195 48.6509 10.7952 48.3394 9.87012C48.0278 8.93555 47.5747 8.13786 46.98 7.47705C46.3758 6.81624 45.6395 6.30648 44.771 5.94775C43.9119 5.57959 42.9302 5.39551 41.8257 5.39551C40.759 5.39551 39.7725 5.58903 38.8662 5.97607C37.96 6.36312 37.1764 6.90592 36.5156 7.60449C35.8548 8.30306 35.3403 9.13851 34.9722 10.1108C34.604 11.0737 34.4199 12.1405 34.4199 13.311V13.8774C34.4199 14.9064 34.604 15.874 34.9722 16.7803C35.3498 17.6771 35.8831 18.4559 36.5723 19.1167C37.2614 19.7869 38.0874 20.3156 39.0503 20.7026C40.0132 21.0897 41.0846 21.2832 42.2646 21.2832ZM41.7974 8.58154C42.2977 8.58154 42.7367 8.66178 43.1143 8.82227C43.5013 8.97331 43.827 9.18099 44.0913 9.44531C44.3556 9.71908 44.5633 10.04 44.7144 10.4082C44.8654 10.7764 44.9409 11.1681 44.9409 11.5835V11.895H38.4839C38.5783 11.3947 38.7199 10.9416 38.9087 10.5356C39.0975 10.1297 39.3335 9.78044 39.6167 9.48779C39.8905 9.19515 40.2114 8.97331 40.5796 8.82227C40.9478 8.66178 41.3537 8.58154 41.7974 8.58154Z" fill="white"/>
<path d="M51.7095 13.1978V13.4951C51.7095 14.6185 51.87 15.6569 52.1909 16.6104C52.5119 17.5544 52.9839 18.3757 53.6069 19.0742C54.2205 19.7728 54.9757 20.3203 55.8726 20.7168C56.7788 21.1038 57.8078 21.2974 58.9595 21.2974C60.1017 21.2974 61.1213 21.1038 62.0181 20.7168C62.9149 20.3203 63.6701 19.7728 64.2837 19.0742C64.8973 18.3757 65.3646 17.5544 65.6855 16.6104C66.0065 15.6569 66.167 14.6185 66.167 13.4951V13.1978C66.167 12.0838 66.0065 11.0549 65.6855 10.1108C65.3646 9.15739 64.8973 8.33138 64.2837 7.63281C63.6606 6.93424 62.9007 6.38672 62.0039 5.99023C61.1071 5.59375 60.0828 5.39551 58.9312 5.39551C57.7795 5.39551 56.7552 5.59375 55.8584 5.99023C54.971 6.38672 54.2205 6.93424 53.6069 7.63281C52.9839 8.33138 52.5119 9.15739 52.1909 10.1108C51.87 11.0549 51.7095 12.0838 51.7095 13.1978ZM55.646 13.4951V13.1978C55.646 12.5747 55.7074 11.9847 55.8301 11.4277C55.9528 10.8708 56.1463 10.3799 56.4106 9.95508C56.675 9.53027 57.0148 9.19515 57.4302 8.94971C57.8455 8.70426 58.3459 8.58154 58.9312 8.58154C59.5259 8.58154 60.0309 8.70426 60.4463 8.94971C60.8617 9.19515 61.2015 9.53027 61.4658 9.95508C61.7207 10.3799 61.9095 10.8708 62.0322 11.4277C62.1549 11.9847 62.2163 12.5747 62.2163 13.1978V13.4951C62.2163 14.137 62.1549 14.7412 62.0322 15.3076C61.9095 15.8646 61.7207 16.3507 61.4658 16.7661C61.2015 17.1909 60.8617 17.526 60.4463 17.7715C60.0309 18.0169 59.5353 18.1396 58.9595 18.1396C58.3647 18.1396 57.855 18.0169 57.4302 17.7715C57.0148 17.526 56.675 17.1909 56.4106 16.7661C56.1463 16.3507 55.9528 15.8646 55.8301 15.3076C55.7074 14.7412 55.646 14.137 55.646 13.4951Z" fill="white"/>
<path d="M69.8628 21H74.6348C75.626 20.9906 76.5464 20.8726 77.396 20.646C78.255 20.4194 79.0244 20.0938 79.7041 19.6689C80.346 19.263 80.9266 18.7721 81.4458 18.1963C81.965 17.6204 82.3945 16.9785 82.7344 16.2705C83.0648 15.5908 83.3149 14.8451 83.4849 14.0332C83.6642 13.2214 83.7539 12.3623 83.7539 11.4561V9.94092C83.7445 8.99691 83.6453 8.10954 83.4565 7.27881C83.2772 6.44808 83.0129 5.68343 82.6636 4.98486C82.2765 4.16357 81.7573 3.44141 81.106 2.81836C80.464 2.18587 79.723 1.67611 78.8828 1.28906C78.2786 1.00586 77.6178 0.788737 76.9004 0.637695C76.1924 0.477214 75.4372 0.392253 74.6348 0.382812H69.8628V21ZM72.5249 2.53516H74.6348C75.2861 2.5446 75.8856 2.62012 76.4331 2.76172C76.9806 2.89388 77.4762 3.08268 77.9199 3.32812C78.543 3.65853 79.0669 4.09277 79.4917 4.63086C79.9259 5.15951 80.2705 5.75423 80.5254 6.41504C80.7236 6.9248 80.87 7.47705 80.9644 8.07178C81.0682 8.65706 81.1248 9.27067 81.1343 9.9126V11.4561C81.1248 12.0885 81.0729 12.6974 80.9785 13.2827C80.8841 13.8586 80.7425 14.3966 80.5537 14.897C80.3366 15.5106 80.0392 16.0675 79.6616 16.5679C79.2935 17.0588 78.8545 17.4741 78.3447 17.814C77.8633 18.1444 77.311 18.3993 76.688 18.5786C76.0744 18.758 75.39 18.8524 74.6348 18.8618H72.5249V2.53516Z" fill="white"/>
<path d="M94.3174 21.2832C95.8089 21.2832 97.0597 20.9858 98.0698 20.3911C99.0894 19.7869 99.854 19.0978 100.364 18.3237L98.7637 17.0776C98.2822 17.7007 97.6781 18.201 96.9512 18.5786C96.2243 18.9562 95.3936 19.145 94.459 19.145C93.751 19.145 93.1043 19.0129 92.519 18.7485C91.9338 18.4842 91.4334 18.1208 91.0181 17.6582C90.6121 17.224 90.2912 16.7236 90.0552 16.1572C89.8286 15.5908 89.6823 14.9347 89.6162 14.189V14.0898H100.562V12.9146C100.562 11.8478 100.425 10.8566 100.151 9.94092C99.887 9.02523 99.4811 8.22754 98.9336 7.54785C98.3861 6.8776 97.6969 6.35368 96.8662 5.97607C96.0449 5.58903 95.082 5.39551 93.9775 5.39551C93.0996 5.39551 92.2406 5.57487 91.4004 5.93359C90.5697 6.29232 89.8286 6.8068 89.1772 7.47705C88.5164 8.15674 87.9878 8.98747 87.5913 9.96924C87.1948 10.9416 86.9966 12.0461 86.9966 13.2827V13.8774C86.9966 14.9442 87.1759 15.9307 87.5347 16.8369C87.8934 17.7432 88.3937 18.5267 89.0356 19.1875C89.6776 19.8483 90.4469 20.3628 91.3438 20.731C92.25 21.0991 93.2412 21.2832 94.3174 21.2832ZM93.9775 7.54785C94.6478 7.54785 95.2236 7.67057 95.7051 7.91602C96.196 8.16146 96.6019 8.48242 96.9229 8.87891C97.2438 9.27539 97.494 9.7474 97.6733 10.2949C97.8527 10.833 97.9424 11.3381 97.9424 11.8101V11.9375H89.7012C89.805 11.2295 89.9844 10.6064 90.2393 10.0684C90.5036 9.52083 90.8245 9.05827 91.2021 8.68066C91.5798 8.3125 92.0046 8.03402 92.4766 7.84521C92.9486 7.64697 93.4489 7.54785 93.9775 7.54785Z" fill="white"/>
<path d="M110.191 21H112.188L118.432 5.67871H115.756L111.465 17.2334L111.21 18.1821L110.97 17.2334L106.58 5.67871H103.89L110.191 21Z" fill="white"/>
</svg>
