<svg width="19" height="18" viewBox="0 0 19 18" fill="none" xmlns="http://www.w3.org/2000/svg">
<path fill-rule="evenodd" clip-rule="evenodd" d="M9.49912 0C4.25384 0 0 4.1314 0 9.22806C0 13.3045 2.72178 16.7634 6.49682 17.9842C6.97213 18.0686 7.14534 17.7837 7.14534 17.539C7.14534 17.3197 7.13718 16.7396 7.13251 15.9698C4.49004 16.5272 3.93251 14.7326 3.93251 14.7326C3.50036 13.6665 2.8775 13.3827 2.8775 13.3827C2.01495 12.8105 2.94282 12.8218 2.94282 12.8218C3.89635 12.887 4.3979 13.773 4.3979 13.773C5.24528 15.183 6.62163 14.7756 7.16284 14.5394C7.24915 13.9435 7.49468 13.5367 7.76586 13.3062C5.65644 13.0728 3.43854 12.2814 3.43854 8.74542C3.43854 7.73764 3.80887 6.91454 4.41656 6.26931C4.31858 6.03592 3.99258 5.0978 4.50987 3.82718C4.50987 3.82718 5.3071 3.57905 7.12201 4.77264C7.87958 4.56814 8.69256 4.46617 9.50029 4.4622C10.3074 4.46617 11.1198 4.56814 11.8786 4.77264C13.6923 3.57905 14.4884 3.82718 14.4884 3.82718C15.0068 5.0978 14.6808 6.03592 14.5834 6.26931C15.1923 6.91454 15.5597 7.73764 15.5597 8.74542C15.5597 12.2905 13.3383 13.0705 11.2225 13.2988C11.5631 13.5838 11.8669 14.1468 11.8669 15.0079C11.8669 16.2411 11.8552 17.2365 11.8552 17.539C11.8552 17.786 12.0267 18.0732 12.5084 17.9831C16.2806 16.76 19 13.3039 19 9.22806C19 4.1314 14.7462 0 9.49912 0Z" fill="#D5DAED"/>
</svg>
