<svg width="50" height="58" viewBox="0 0 50 58" fill="none" xmlns="http://www.w3.org/2000/svg">
<path d="M35.2343 14.3482L31.3455 22.2814C32.623 23.4771 33.5248 25.0523 33.8818 26.8363H36.8123C37.1505 25.1473 37.977 23.6289 39.1605 22.4523L35.2343 14.3482Z" fill="#F4511E"/>
<path d="M28.077 20.3645L35.2343 5.75068L42.3729 20.4594C42.6548 20.3645 42.9366 20.2885 43.2184 20.2126L50 0H20.4498L27.2127 20.1557C27.4945 20.2126 27.7952 20.2885 28.077 20.3645Z" fill="#F4511E"/>
<path d="M25.6159 33.289C28.2271 33.289 30.35 31.1445 30.35 28.5064C30.35 27.5383 30.0682 26.6464 29.5798 25.8871C29.4295 25.6405 29.2416 25.4128 29.0537 25.204L29.035 25.185C28.8471 24.9762 28.6218 24.7864 28.3962 24.6345L28.3775 24.6157C28.3211 24.5776 28.2461 24.5207 28.1709 24.4828C28.1521 24.4828 28.1521 24.4638 28.1332 24.4638C28.0582 24.4259 27.983 24.3688 27.9078 24.3309H27.8891C27.8139 24.293 27.72 24.236 27.6448 24.1981H27.6261C27.5509 24.1602 27.4757 24.1221 27.4005 24.1031C27.3818 24.1031 27.363 24.0842 27.3443 24.0842C27.2878 24.0652 27.2127 24.0273 27.1564 24.0083C27.1377 24.0083 27.1187 23.9893 27.0812 23.9893C27.0061 23.9702 26.9309 23.9324 26.8559 23.9133H26.837C26.743 23.8945 26.668 23.8754 26.5741 23.8564C26.5552 23.8564 26.5364 23.8564 26.4989 23.8374C26.4237 23.8185 26.3673 23.8185 26.2923 23.7995C26.2546 23.7995 26.2359 23.7995 26.1984 23.7805C26.142 23.7805 26.0668 23.7616 26.0105 23.7616H25.2778C25.2027 23.7616 25.1462 23.7805 25.0712 23.7805H24.9961C24.9209 23.7995 24.8457 23.7995 24.7705 23.8185H24.7143C24.6203 23.8374 24.5452 23.8564 24.4512 23.8754C22.3848 24.3878 20.8443 26.2857 20.8443 28.5252C20.882 31.1254 23.0046 33.289 25.6159 33.289Z" fill="#F4511E"/>
<path d="M45.5289 23.7239H45.4914C45.4162 23.7239 45.36 23.7049 45.2848 23.7049H45.0405C44.9466 23.7049 44.8527 23.7049 44.74 23.7239H44.6461C44.5709 23.7239 44.4957 23.743 44.4205 23.743C44.4018 23.743 44.3643 23.743 44.3455 23.7618L44.0637 23.8187H44.0448C43.9509 23.8377 43.8759 23.8568 43.782 23.8758C43.763 23.8758 43.7255 23.8947 43.7068 23.8947C43.6316 23.9137 43.5564 23.9327 43.4812 23.9706C43.4625 23.9706 43.4437 23.9896 43.425 23.9896C43.3311 24.0275 43.2371 24.0656 43.162 24.1035C43.068 24.1415 42.9929 24.1794 42.8989 24.2173C42.8802 24.2173 42.8614 24.2363 42.8427 24.2363C42.7675 24.2742 42.6923 24.3123 42.6171 24.3692C42.6171 24.3692 42.5984 24.3692 42.5984 24.3882C42.4293 24.483 42.2602 24.597 42.11 24.7299L42.0912 24.7487C41.847 24.9385 41.6404 25.1473 41.4337 25.3751C41.227 25.6028 41.058 25.8685 40.9077 26.1342C40.5132 26.8365 40.2877 27.6525 40.2877 28.5065C40.2877 31.1446 42.4105 33.2894 45.0218 33.2894C47.633 33.2894 49.7559 31.1446 49.7559 28.5065C49.7559 26.1911 48.1027 24.2363 45.9423 23.7999C45.8296 23.7618 45.6793 23.743 45.5289 23.7239Z" fill="#F4511E"/>
<path d="M5.98463 33.289C8.59588 33.289 10.7187 31.1443 10.7187 28.5062C10.7187 25.8681 8.59588 23.7236 5.98463 23.7236C3.37338 23.7236 1.2507 25.8681 1.2507 28.5062C1.2507 31.1443 3.37338 33.289 5.98463 33.289Z" fill="#F4511E"/>
<path d="M45.0593 36.9903C41.1518 36.9903 37.8643 34.2763 36.925 30.6322H33.7689C32.8296 34.2763 29.5421 36.9903 25.6346 36.9903C25.1839 36.9903 24.7518 36.9522 24.3386 36.8953C23.2489 38.5846 21.9527 40.1408 20.4311 41.5832C17.7446 44.1453 14.7014 46.0433 11.4137 47.2389L10.6436 47.5236L9.9298 47.1441C5.98462 45.0943 3.95587 40.9379 4.66963 36.9143C4.21873 36.8384 3.78677 36.7246 3.37338 36.5727C3.29838 36.7056 3.24195 36.8574 3.16677 37.0093C1.96445 39.5146 0.705875 42.0955 0.254982 44.8665C-0.233411 47.8272 -0.440019 53.2362 3.69284 56.1212C5.49623 57.3738 7.39356 58 9.51641 58C13.593 58 17.9889 55.7985 22.6478 53.4641C26.2923 51.6421 30.0495 49.7441 33.9568 48.7762C35.4409 48.4157 36.9437 48.1879 38.3904 47.9791C41.0391 47.5995 43.5564 47.22 45.6041 46.0243C47.7832 44.7527 49.2673 42.627 49.6807 40.1977C49.9436 38.7174 49.7934 37.2179 49.305 35.8325C48.065 36.5538 46.6186 36.9903 45.0593 36.9903Z" fill="#F4511E"/>
</svg>
