<svg width="95" height="105" viewBox="0 0 95 105" fill="none" xmlns="http://www.w3.org/2000/svg">
<path d="M43.2208 1.11971C44.5301 0.385501 46.0048 0 47.5049 0C49.0051 0 50.4798 0.385501 51.7891 1.11971C64.8351 8.51344 77.8821 15.9058 90.93 23.2972C92.157 23.998 93.1789 25.0102 93.8934 26.2319C94.6075 27.4537 94.9891 28.8424 95 30.2588V74.7591C94.9746 76.2275 94.5548 77.6621 93.7853 78.9117C93.0158 80.1612 91.9246 81.1797 90.6268 81.8596C77.6227 89.2136 64.6219 96.5706 51.6243 103.931C50.2903 104.671 48.7833 105.039 47.2594 104.997C45.7359 104.954 44.2513 104.503 42.9604 103.69C39.0628 101.422 35.1622 99.1603 31.258 96.9035C30.4012 96.5141 29.633 95.9525 29.0006 95.254C29.4982 94.5929 30.388 94.497 31.1097 94.2028C32.7113 93.628 34.256 92.904 35.7235 92.0409C35.9083 91.9315 36.1216 91.88 36.3361 91.8928C36.5503 91.9057 36.7559 91.9828 36.9263 92.1137C40.2614 94.0309 43.5635 96.0044 46.9085 97.9018C47.6236 98.315 48.3453 97.7663 48.955 97.4258C61.7152 90.1908 74.4798 82.9647 87.2489 75.7475C87.4767 75.6335 87.6648 75.4533 87.7887 75.2305C87.913 75.0074 87.967 74.7522 87.9443 74.498C87.9443 59.8233 87.9443 45.1464 87.9443 30.4671C87.9674 30.1815 87.9011 29.8959 87.7548 29.6499C87.6081 29.404 87.3887 29.2099 87.127 29.0952C74.1647 21.7743 61.2087 14.4503 48.2596 7.12276C48.0349 6.96839 47.7689 6.88608 47.4967 6.88608C47.2245 6.88608 46.9585 6.96839 46.7338 7.12276C33.7715 14.448 20.8168 21.7756 7.86971 29.1052C7.60705 29.2169 7.38626 29.4093 7.23895 29.6542C7.09131 29.8995 7.02507 30.1851 7.04912 30.4704C7.04912 45.145 7.04912 59.822 7.04912 74.5013C7.02671 74.7548 7.08208 75.0094 7.2083 75.2305C7.33452 75.4513 7.525 75.6285 7.75436 75.7376C11.2124 77.7035 14.6717 79.6637 18.132 81.6183C19.0916 82.2133 20.1656 82.5984 21.2835 82.7488C22.4016 82.8992 23.5389 82.8113 24.6208 82.491C25.5584 82.1363 26.3658 81.5036 26.9353 80.6765C27.5048 79.8495 27.8089 78.868 27.8076 77.8631C27.8241 63.2721 27.8076 48.6811 27.8076 34.0934C27.8037 33.9386 27.8327 33.7846 27.892 33.6418C27.9516 33.499 28.0409 33.3704 28.1536 33.2646C28.266 33.1589 28.3998 33.0779 28.5458 33.0276C28.6918 32.9774 28.8467 32.9585 29.0006 32.9727C30.6483 32.9727 32.3258 32.9496 33.9867 32.9727C34.1475 32.9803 34.3047 33.0213 34.4484 33.0937C34.5924 33.1658 34.7193 33.2676 34.8215 33.3922C34.9236 33.5168 34.9988 33.6616 35.0416 33.817C35.0848 33.9727 35.0947 34.1353 35.0709 34.295C35.0709 48.9786 35.0874 63.6622 35.0709 78.3424C35.1813 80.337 34.7565 82.3247 33.8407 84.0985C32.9249 85.8723 31.5517 87.3674 29.864 88.4279C27.6086 89.4824 25.1392 89.9957 22.6518 89.9273C20.164 89.8589 17.7266 89.211 15.5318 88.0345C11.7288 86.1305 8.10039 83.886 4.36657 81.8464C3.07044 81.1681 1.98094 80.1519 1.21243 78.9047C0.44391 77.6572 0.025046 76.2252 0 74.7591V30.2588C0.0112048 28.8126 0.408315 27.3962 1.15014 26.1562C1.89196 24.9163 2.95147 23.8981 4.21827 23.2079C17.2247 15.8496 30.2255 8.48699 43.2208 1.11971Z" fill="#8CC84B"/>
<path d="M54.5607 31.9381C60.3057 31.192 66.1441 32.0882 71.4041 34.5231C73.3102 35.6635 74.8861 37.2836 75.9756 39.2233C77.0655 41.1628 77.631 43.354 77.6161 45.5804C77.542 45.8587 77.3703 46.101 77.1323 46.2627C76.8944 46.424 76.6064 46.4941 76.321 46.4597C74.6732 46.4597 73.0255 46.4828 71.3777 46.4597C71.0617 46.4392 70.7644 46.301 70.5443 46.0726C70.3241 45.8438 70.1972 45.541 70.188 45.2234C70.0015 44.1451 69.5836 43.1207 68.9627 42.2212C68.3419 41.3214 67.5328 40.5681 66.5926 40.0137C63.4635 38.7672 60.0843 38.2826 56.7324 38.5989C54.2624 38.5212 51.8191 39.1311 49.6734 40.3608C48.9345 40.9353 48.3937 41.728 48.1271 42.6268C47.8605 43.5256 47.8816 44.4859 48.1871 45.3721C48.7144 46.6316 50.1644 47.0249 51.3508 47.4117C58.1857 49.2034 65.426 49.0249 72.1291 51.3785C73.5686 51.7791 74.8973 52.5053 76.0135 53.5013C77.1297 54.497 78.0037 55.7363 78.5685 57.1236C79.2408 59.0921 79.4033 61.1995 79.0404 63.248C78.6779 65.2968 77.8023 67.2193 76.4957 68.8355C74.1321 71.2962 71.062 72.9556 67.7131 73.5823C63.3511 74.4709 58.8765 74.6616 54.4552 74.1476C50.2119 73.905 46.1432 72.3702 42.7923 69.7478C41.4629 68.5257 40.4189 67.0243 39.7351 65.3503C39.0516 63.6767 38.7451 61.8718 38.8377 60.0656C38.8677 59.7734 39.0117 59.5053 39.2385 59.3192C39.4652 59.1334 39.7559 59.0452 40.0472 59.0739C41.6949 59.0739 43.3592 59.0574 45.0168 59.0739C45.1704 59.0703 45.323 59.0974 45.4657 59.1536C45.6087 59.2095 45.7392 59.2934 45.8496 59.4005C45.96 59.5076 46.048 59.6356 46.1086 59.7767C46.1693 59.9182 46.2016 60.0703 46.2032 60.2243C46.2859 61.2507 46.5773 62.2497 47.0587 63.159C47.5405 64.0687 48.2026 64.8697 49.0044 65.5133C52.5524 67.2643 56.5172 67.9879 60.4531 67.6025C63.7473 67.8507 67.0345 67.0402 69.8387 65.2885C70.4833 64.6565 70.9526 63.8664 71.1997 62.9971C71.4472 62.1274 71.4641 61.2081 71.2492 60.3301C70.8471 58.8624 69.3147 58.1781 67.9998 57.7319C61.2539 55.5898 53.9312 56.3666 47.238 53.9469C45.8364 53.5357 44.5406 52.8243 43.4399 51.8621C42.3389 50.9001 41.459 49.7098 40.8612 48.3736C40.0933 46.379 39.8995 44.2079 40.3016 42.1082C40.7037 40.0084 41.6854 38.0641 43.1351 36.4965C46.2935 33.7 50.315 32.0786 54.5244 31.905L54.5607 31.9381Z" fill="#8CC84B"/>
</svg>
