<svg width="80" height="80" viewBox="0 0 80 80" fill="none" xmlns="http://www.w3.org/2000/svg">
<path d="M56.9173 34.1004C56.3402 34.0379 55.5731 34.0022 54.8979 34.0001C54.493 33.9988 54.1205 34.0094 53.8426 34.0358C51.6698 34.2246 49.6402 35.1735 48.251 36.6502C47.555 37.3899 46.9245 38.4508 46.6165 39.4004C46.4789 39.8245 46.3975 40.0735 46.3495 40.3287C46.279 40.7032 46.2804 41.0913 46.2814 42.0665C46.2832 44.1611 46.3894 44.6796 47.1021 46.0726C47.8186 47.4734 48.9102 48.6177 50.4853 49.6187C51.1755 50.0572 52.9434 50.9388 54.3867 51.5641C57.5291 52.9252 58.523 53.5535 58.9843 54.4692L59.1747 54.847V55.639C59.1747 56.4028 59.1717 56.4422 59.0163 56.7571C58.6619 57.486 57.8256 58.0827 56.7541 58.371C56.349 58.4799 56.1632 58.4951 55.2578 58.4955C54.3715 58.4955 54.1565 58.4774 53.7502 58.3761C53.0411 58.1969 52.4438 57.9484 51.9766 57.6391C51.4048 57.2603 50.28 56.1251 49.8226 55.4646C49.6206 55.1729 49.4181 54.9342 49.3726 54.9342C49.2974 54.9342 45.4198 57.1508 44.7432 57.5807C44.515 57.7259 44.4574 57.7918 44.4574 57.9079C44.4574 58.1489 45.3634 59.5177 46.073 60.3495C47.5187 62.0441 50.4178 63.5387 52.9861 63.9126C54.0011 64.0604 55.6878 64.1083 56.8659 64.0215C57.6378 63.9651 58.4181 63.8182 59.2566 63.5723C62.2902 62.6827 64.3598 60.7923 65.1267 58.2108C65.4395 57.1577 65.5658 55.8625 65.4624 54.7697C65.2507 52.5276 64.5614 50.9425 63.2011 49.5695C61.9379 48.2948 60.2035 47.2675 56.7808 45.7668C53.8131 44.4654 53.0387 43.9601 52.611 43.046C52.2418 42.2569 52.3118 41.1708 52.7765 40.4959C53.32 39.706 54.4298 39.3159 55.667 39.4798C56.8174 39.6318 57.5616 40.0878 58.2906 41.0867C58.6691 41.6055 58.9315 41.8756 59.0576 41.8756C59.1819 41.8756 59.7171 41.5452 61.3786 40.4423C63.0699 39.3196 63.6019 38.9385 63.6382 38.8236C63.6949 38.6457 63.4296 38.2294 62.6542 37.2782C61.0973 35.3686 59.2672 34.3547 56.9173 34.1004Z" fill="#0288D1"/>
<path d="M42.8235 34.3647C42.785 34.3406 40.3854 34.326 36.2005 34.3239C34.8054 34.3231 33.2123 34.3239 31.4418 34.3257C22.259 34.3347 20.1278 34.35 20.0704 34.4092C20.0146 34.4652 20 35.0279 20 37.1297V39.7795L28.3517 39.8095L28.3526 51.6297C28.3531 58.131 28.3678 63.5051 28.3882 63.5724L28.4195 63.6951H31.4542C34.1714 63.6951 34.4925 63.6889 34.5219 63.6092C34.5402 63.5617 34.5533 58.1876 34.5533 51.6665V39.8102L42.9051 39.7798V37.0982C42.9051 34.7739 42.896 34.4097 42.8235 34.3647Z" fill="#0288D1"/>
<path d="M8 1.25H72C75.7279 1.25 78.75 4.27209 78.75 8V72C78.75 75.7279 75.7279 78.75 72 78.75H8C4.27209 78.75 1.25 75.7279 1.25 72V8C1.25 4.27208 4.27208 1.25 8 1.25Z" stroke="#0288D1" stroke-width="2.5"/>
</svg>
